<mxfile host="app.diagrams.net" modified="2023-06-29T07:14:46.247Z" agent="Mozilla/5.0 (X11; Linux x86_64) AppleWebKit/537.36 (KHTML, like Gecko) Chrome/111.0.0.0 Safari/537.36" etag="Tbwt72JaYcOBCmWkSbtG" version="21.5.0" type="device">
  <diagram name="第 1 页" id="bGZ5lBlsPCS4FXDOy0iK">
    <mxGraphModel dx="2209" dy="798" grid="1" gridSize="10" guides="1" tooltips="1" connect="1" arrows="1" fold="1" page="1" pageScale="1" pageWidth="827" pageHeight="1169" math="0" shadow="0">
      <root>
        <mxCell id="0" />
        <mxCell id="1" parent="0" />
        <mxCell id="-gtKlTqCoEfFWyv1LTS2-3" style="rounded=0;orthogonalLoop=1;jettySize=auto;html=1;" edge="1" parent="1" source="-gtKlTqCoEfFWyv1LTS2-2" target="-gtKlTqCoEfFWyv1LTS2-4">
          <mxGeometry relative="1" as="geometry">
            <mxPoint x="280" y="380" as="targetPoint" />
          </mxGeometry>
        </mxCell>
        <mxCell id="-gtKlTqCoEfFWyv1LTS2-6" style="rounded=0;orthogonalLoop=1;jettySize=auto;html=1;" edge="1" parent="1" source="-gtKlTqCoEfFWyv1LTS2-2" target="-gtKlTqCoEfFWyv1LTS2-5">
          <mxGeometry relative="1" as="geometry" />
        </mxCell>
        <mxCell id="-gtKlTqCoEfFWyv1LTS2-33" style="rounded=0;orthogonalLoop=1;jettySize=auto;html=1;" edge="1" parent="1" source="-gtKlTqCoEfFWyv1LTS2-2" target="-gtKlTqCoEfFWyv1LTS2-30">
          <mxGeometry relative="1" as="geometry" />
        </mxCell>
        <mxCell id="-gtKlTqCoEfFWyv1LTS2-2" value="Root" style="ellipse;whiteSpace=wrap;html=1;" vertex="1" parent="1">
          <mxGeometry x="530" y="160" width="120" height="80" as="geometry" />
        </mxCell>
        <mxCell id="-gtKlTqCoEfFWyv1LTS2-15" style="rounded=0;orthogonalLoop=1;jettySize=auto;html=1;" edge="1" parent="1" source="-gtKlTqCoEfFWyv1LTS2-4" target="-gtKlTqCoEfFWyv1LTS2-9">
          <mxGeometry relative="1" as="geometry" />
        </mxCell>
        <mxCell id="-gtKlTqCoEfFWyv1LTS2-4" value="Context(entrance1)" style="ellipse;whiteSpace=wrap;html=1;" vertex="1" parent="1">
          <mxGeometry x="220" y="300" width="140" height="90" as="geometry" />
        </mxCell>
        <mxCell id="-gtKlTqCoEfFWyv1LTS2-16" style="rounded=0;orthogonalLoop=1;jettySize=auto;html=1;" edge="1" parent="1" source="-gtKlTqCoEfFWyv1LTS2-5" target="-gtKlTqCoEfFWyv1LTS2-10">
          <mxGeometry relative="1" as="geometry" />
        </mxCell>
        <mxCell id="-gtKlTqCoEfFWyv1LTS2-5" value="Context(entrance2)" style="ellipse;whiteSpace=wrap;html=1;" vertex="1" parent="1">
          <mxGeometry x="530" y="300" width="140" height="90" as="geometry" />
        </mxCell>
        <mxCell id="-gtKlTqCoEfFWyv1LTS2-17" style="rounded=0;orthogonalLoop=1;jettySize=auto;html=1;" edge="1" parent="1" source="-gtKlTqCoEfFWyv1LTS2-9" target="-gtKlTqCoEfFWyv1LTS2-11">
          <mxGeometry relative="1" as="geometry" />
        </mxCell>
        <mxCell id="-gtKlTqCoEfFWyv1LTS2-9" value="EntranceNode(entrance1)" style="ellipse;whiteSpace=wrap;html=1;" vertex="1" parent="1">
          <mxGeometry x="150" y="480" width="170" height="80" as="geometry" />
        </mxCell>
        <mxCell id="-gtKlTqCoEfFWyv1LTS2-18" style="rounded=0;orthogonalLoop=1;jettySize=auto;html=1;" edge="1" parent="1" source="-gtKlTqCoEfFWyv1LTS2-10" target="-gtKlTqCoEfFWyv1LTS2-12">
          <mxGeometry relative="1" as="geometry" />
        </mxCell>
        <mxCell id="-gtKlTqCoEfFWyv1LTS2-22" style="rounded=0;orthogonalLoop=1;jettySize=auto;html=1;entryX=1;entryY=0;entryDx=0;entryDy=0;" edge="1" parent="1" source="-gtKlTqCoEfFWyv1LTS2-10" target="-gtKlTqCoEfFWyv1LTS2-25">
          <mxGeometry relative="1" as="geometry" />
        </mxCell>
        <mxCell id="-gtKlTqCoEfFWyv1LTS2-10" value="EntranceNode(entrance2)" style="ellipse;whiteSpace=wrap;html=1;" vertex="1" parent="1">
          <mxGeometry x="580" y="480" width="170" height="80" as="geometry" />
        </mxCell>
        <mxCell id="-gtKlTqCoEfFWyv1LTS2-19" style="rounded=0;orthogonalLoop=1;jettySize=auto;html=1;" edge="1" parent="1" source="-gtKlTqCoEfFWyv1LTS2-11" target="-gtKlTqCoEfFWyv1LTS2-13">
          <mxGeometry relative="1" as="geometry" />
        </mxCell>
        <mxCell id="-gtKlTqCoEfFWyv1LTS2-11" value="DefaultNode(NodeA)" style="ellipse;whiteSpace=wrap;html=1;" vertex="1" parent="1">
          <mxGeometry x="90" y="640" width="180" height="100" as="geometry" />
        </mxCell>
        <mxCell id="-gtKlTqCoEfFWyv1LTS2-20" style="rounded=0;orthogonalLoop=1;jettySize=auto;html=1;" edge="1" parent="1" source="-gtKlTqCoEfFWyv1LTS2-12" target="-gtKlTqCoEfFWyv1LTS2-14">
          <mxGeometry relative="1" as="geometry" />
        </mxCell>
        <mxCell id="-gtKlTqCoEfFWyv1LTS2-12" value="DefaultNode(NodeB)" style="ellipse;whiteSpace=wrap;html=1;" vertex="1" parent="1">
          <mxGeometry x="607.5" y="650" width="180" height="100" as="geometry" />
        </mxCell>
        <mxCell id="-gtKlTqCoEfFWyv1LTS2-13" value="ClusterNode(NodeA)" style="ellipse;whiteSpace=wrap;html=1;" vertex="1" parent="1">
          <mxGeometry x="40" y="800" width="170" height="80" as="geometry" />
        </mxCell>
        <mxCell id="-gtKlTqCoEfFWyv1LTS2-14" value="ClusterNode(NodeB)" style="ellipse;whiteSpace=wrap;html=1;" vertex="1" parent="1">
          <mxGeometry x="640" y="800" width="170" height="80" as="geometry" />
        </mxCell>
        <mxCell id="-gtKlTqCoEfFWyv1LTS2-27" style="rounded=0;orthogonalLoop=1;jettySize=auto;html=1;entryX=1;entryY=0;entryDx=0;entryDy=0;" edge="1" parent="1" source="-gtKlTqCoEfFWyv1LTS2-25" target="-gtKlTqCoEfFWyv1LTS2-13">
          <mxGeometry relative="1" as="geometry" />
        </mxCell>
        <mxCell id="-gtKlTqCoEfFWyv1LTS2-25" value="DefaultNode(NodeA)" style="ellipse;whiteSpace=wrap;html=1;" vertex="1" parent="1">
          <mxGeometry x="320" y="650" width="180" height="100" as="geometry" />
        </mxCell>
        <mxCell id="-gtKlTqCoEfFWyv1LTS2-28" value="DefaultNode对Context和Resource是唯一的" style="text;html=1;strokeColor=none;fillColor=none;align=center;verticalAlign=middle;whiteSpace=wrap;rounded=0;" vertex="1" parent="1">
          <mxGeometry x="-70" y="690" width="150" as="geometry" />
        </mxCell>
        <mxCell id="-gtKlTqCoEfFWyv1LTS2-29" value="ClusterNode对于Resource是唯一的" style="text;html=1;strokeColor=none;fillColor=none;align=center;verticalAlign=middle;whiteSpace=wrap;rounded=0;" vertex="1" parent="1">
          <mxGeometry x="-130" y="840" width="150" as="geometry" />
        </mxCell>
        <mxCell id="-gtKlTqCoEfFWyv1LTS2-35" style="rounded=0;orthogonalLoop=1;jettySize=auto;html=1;" edge="1" parent="1" source="-gtKlTqCoEfFWyv1LTS2-30" target="-gtKlTqCoEfFWyv1LTS2-34">
          <mxGeometry relative="1" as="geometry" />
        </mxCell>
        <mxCell id="-gtKlTqCoEfFWyv1LTS2-30" value="Context(sentinel_default_context)" style="ellipse;whiteSpace=wrap;html=1;" vertex="1" parent="1">
          <mxGeometry x="730" y="300" width="200" height="90" as="geometry" />
        </mxCell>
        <mxCell id="-gtKlTqCoEfFWyv1LTS2-32" value="不手动创建或框架创建，默认挂在sentinel_default_context" style="text;html=1;strokeColor=none;fillColor=none;align=center;verticalAlign=middle;whiteSpace=wrap;rounded=0;" vertex="1" parent="1">
          <mxGeometry x="1080" y="320" width="170" height="30" as="geometry" />
        </mxCell>
        <mxCell id="-gtKlTqCoEfFWyv1LTS2-37" value="" style="rounded=0;orthogonalLoop=1;jettySize=auto;html=1;" edge="1" parent="1" source="-gtKlTqCoEfFWyv1LTS2-34" target="-gtKlTqCoEfFWyv1LTS2-36">
          <mxGeometry relative="1" as="geometry" />
        </mxCell>
        <mxCell id="-gtKlTqCoEfFWyv1LTS2-34" value="EntranceNode(sentinel_default_context)" style="ellipse;whiteSpace=wrap;html=1;" vertex="1" parent="1">
          <mxGeometry x="820" y="480" width="230" height="80" as="geometry" />
        </mxCell>
        <mxCell id="-gtKlTqCoEfFWyv1LTS2-39" style="rounded=0;orthogonalLoop=1;jettySize=auto;html=1;" edge="1" parent="1" source="-gtKlTqCoEfFWyv1LTS2-36" target="-gtKlTqCoEfFWyv1LTS2-38">
          <mxGeometry relative="1" as="geometry" />
        </mxCell>
        <mxCell id="-gtKlTqCoEfFWyv1LTS2-36" value="DefaultNode(NodeC)" style="ellipse;whiteSpace=wrap;html=1;" vertex="1" parent="1">
          <mxGeometry x="910" y="650" width="170" height="80" as="geometry" />
        </mxCell>
        <mxCell id="-gtKlTqCoEfFWyv1LTS2-38" value="ClusterNode(NodeB)" style="ellipse;whiteSpace=wrap;html=1;" vertex="1" parent="1">
          <mxGeometry x="950" y="800" width="170" height="80" as="geometry" />
        </mxCell>
        <mxCell id="-gtKlTqCoEfFWyv1LTS2-41" value="Context" style="ellipse;whiteSpace=wrap;html=1;verticalAlign=top;" vertex="1" parent="1">
          <mxGeometry x="-280" y="262.5" width="210" height="145" as="geometry" />
        </mxCell>
        <mxCell id="-gtKlTqCoEfFWyv1LTS2-44" value="name" style="rounded=0;whiteSpace=wrap;html=1;" vertex="1" parent="1">
          <mxGeometry x="-250" y="297.5" width="60" height="30" as="geometry" />
        </mxCell>
        <mxCell id="-gtKlTqCoEfFWyv1LTS2-45" value="entranceNode" style="rounded=0;whiteSpace=wrap;html=1;" vertex="1" parent="1">
          <mxGeometry x="-170" y="297.5" width="80" height="30" as="geometry" />
        </mxCell>
        <mxCell id="-gtKlTqCoEfFWyv1LTS2-46" value="curEntry" style="rounded=0;whiteSpace=wrap;html=1;" vertex="1" parent="1">
          <mxGeometry x="-260" y="337.5" width="80" height="30" as="geometry" />
        </mxCell>
        <mxCell id="-gtKlTqCoEfFWyv1LTS2-47" value="origin" style="rounded=0;whiteSpace=wrap;html=1;" vertex="1" parent="1">
          <mxGeometry x="-170" y="337.5" width="80" height="30" as="geometry" />
        </mxCell>
        <mxCell id="-gtKlTqCoEfFWyv1LTS2-48" value="CtEntry" style="ellipse;whiteSpace=wrap;html=1;verticalAlign=top;" vertex="1" parent="1">
          <mxGeometry x="-280" y="460" width="230" height="180" as="geometry" />
        </mxCell>
        <mxCell id="-gtKlTqCoEfFWyv1LTS2-49" value="parentEntry" style="rounded=0;whiteSpace=wrap;html=1;" vertex="1" parent="1">
          <mxGeometry x="-245" y="495" width="70" height="30" as="geometry" />
        </mxCell>
        <mxCell id="-gtKlTqCoEfFWyv1LTS2-50" value="childEntry" style="rounded=0;whiteSpace=wrap;html=1;" vertex="1" parent="1">
          <mxGeometry x="-170" y="495" width="80" height="30" as="geometry" />
        </mxCell>
        <mxCell id="-gtKlTqCoEfFWyv1LTS2-51" value="context" style="rounded=0;whiteSpace=wrap;html=1;" vertex="1" parent="1">
          <mxGeometry x="-255" y="535" width="80" height="35" as="geometry" />
        </mxCell>
        <mxCell id="-gtKlTqCoEfFWyv1LTS2-52" value="ProcessSlotChain" style="rounded=0;whiteSpace=wrap;html=1;" vertex="1" parent="1">
          <mxGeometry x="-170" y="535" width="100" height="35" as="geometry" />
        </mxCell>
        <mxCell id="-gtKlTqCoEfFWyv1LTS2-53" value="Linked entry within current context." style="text;html=1;strokeColor=none;fillColor=none;align=center;verticalAlign=middle;whiteSpace=wrap;rounded=0;" vertex="1" parent="1">
          <mxGeometry x="-470" y="495" width="190" height="20" as="geometry" />
        </mxCell>
        <mxCell id="-gtKlTqCoEfFWyv1LTS2-54" value="curNode" style="rounded=0;whiteSpace=wrap;html=1;" vertex="1" parent="1">
          <mxGeometry x="-215" y="580" width="80" height="30" as="geometry" />
        </mxCell>
      </root>
    </mxGraphModel>
  </diagram>
</mxfile>
